<?xml version="1.0" standalone="no"?>
<!DOCTYPE svg PUBLIC "-//W3C//DTD SVG 20010904//EN"
 "http://www.w3.org/TR/2001/REC-SVG-20010904/DTD/svg10.dtd">
<svg version="1.0" xmlns="http://www.w3.org/2000/svg"
 width="192.000000pt" height="192.000000pt" viewBox="0 0 192.000000 192.000000"
 preserveAspectRatio="xMidYMid meet">
<metadata>
Created by potrace 1.11, written by Peter Selinger 2001-2013
</metadata>
<g transform="translate(0.000000,192.000000) scale(0.100000,-0.100000)"
fill="#000000" stroke="none">
<path d="M942 1547 c-5 -7 -6 -21 -1 -32 4 -11 8 -15 8 -8 1 7 7 10 14 7 8 -3
13 3 13 16 0 23 -21 34 -34 17z"/>
<path d="M1053 1533 c-16 -6 6 -43 25 -43 7 0 10 -5 7 -10 -4 -6 -10 -8 -15
-5 -4 3 -23 -2 -42 -9 -19 -8 -54 -17 -78 -20 -23 -2 -46 -9 -49 -14 -14 -20
-41 -21 -51 -2 -6 11 -7 20 -3 20 5 0 14 14 20 30 6 17 7 30 2 30 -5 0 -9 -6
-9 -12 0 -9 -3 -8 -10 2 -7 11 -11 5 -15 -25 l-7 -40 -100 33 c-195 65 -356
45 -455 -57 -35 -35 -69 -100 -77 -145 -2 -12 -31 -50 -64 -83 -48 -47 -64
-72 -76 -115 -25 -83 -5 -175 54 -257 13 -19 20 -45 20 -75 0 -58 37 -103 90
-109 25 -3 48 -17 75 -44 83 -82 259 -165 398 -188 17 -3 45 -8 60 -11 16 -3
72 -8 125 -10 54 -2 126 -6 162 -9 270 -21 394 -4 554 77 176 88 273 221 281
383 8 158 -53 283 -190 391 -27 21 -61 49 -75 62 -27 24 -139 85 -179 97 -13
4 -43 22 -67 40 -58 44 -121 65 -206 69 -25 1 -53 7 -60 14 -8 6 -18 9 -22 5
-4 -4 -4 0 -1 9 7 18 -3 28 -22 21z"/>
</g>
</svg>
